<svg xmlns="http://www.w3.org/2000/svg" width="620" height="150" viewBox="0 0 620 150">
  <defs>
    <linearGradient id="mark" x1="0" y1="0" x2="1" y2="1">
      <stop offset="0%" stop-color="#38bdf8"/>
      <stop offset="100%" stop-color="#22c55e"/>
    </linearGradient>
    <linearGradient id="text" x1="0" y1="0" x2="1" y2="0">
      <stop offset="0%" stop-color="#0f172a"/>
      <stop offset="100%" stop-color="#334155"/>
    </linearGradient>
  </defs>

  <rect width="620" height="150" fill="transparent"/>

  <g transform="translate(18 22)">
    <rect x="0" y="0" width="106" height="106" rx="26" fill="url(#mark)"/>
    <path d="M27 61 L53 30 L79 61" fill="none" stroke="#ffffff" stroke-width="10" stroke-linecap="round" stroke-linejoin="round"/>
    <path d="M36 60 V82 H70 V60" fill="none" stroke="#ffffff" stroke-width="10" stroke-linecap="round" stroke-linejoin="round"/>
    <circle cx="82" cy="27" r="9" fill="#ffffff"/>
  </g>

  <text x="148" y="70" font-family="Arial, Helvetica, sans-serif" font-size="47" font-weight="800" fill="url(#text)">HomeOn</text>
  <text x="151" y="108" font-family="Arial, Helvetica, sans-serif" font-size="22" font-weight="500" fill="#64748b">Energy Management System</text>

  <g transform="translate(465 42)" opacity="0.95">
    <path d="M0 32 C24 32 24 0 48 0 C72 0 72 64 96 64 C120 64 120 32 144 32" fill="none" stroke="#38bdf8" stroke-width="7" stroke-linecap="round"/>
    <path d="M0 64 C24 64 24 32 48 32 C72 32 72 0 96 0 C120 0 120 64 144 64" fill="none" stroke="#22c55e" stroke-width="7" stroke-linecap="round"/>
  </g>
</svg>
